<svg width="481" height="364" viewBox="0 0 481 364" fill="none" xmlns="http://www.w3.org/2000/svg">
<path d="M240.726 208.709C271.337 204.94 295.979 193.853 312.09 178.731C351.299 141.927 331.794 65.4724 331.203 62.5458C318.333 -1.09426 239.083 -68.8422 210.764 153.155C208.937 167.483 208.044 180.901 208.001 193.458C217.935 192.992 228.432 191.612 238.685 189.658C237.824 178.285 237.499 166.108 237.765 153.079C242.13 -60.6535 317.091 37.2126 319.955 95.5136C320.1 146.992 305.621 162.418 302.065 166.56C296.099 173.512 268.416 183.993 238.685 189.658C239.187 196.277 239.871 202.625 240.726 208.709Z" fill="#00C56A"/>
<path d="M480.255 352.453L453.226 342.526L465.844 316.874C395.506 348.008 262.504 363.65 240.726 208.709C230.592 209.956 219.803 210.402 208.453 209.926C218.359 375.525 388.142 376.078 480.255 352.453Z" fill="#00C56A"/>
<path d="M238.685 189.658C228.432 191.612 217.935 192.992 208.001 193.458C207.982 199.121 208.135 204.608 208.453 209.926C219.803 210.402 230.592 209.956 240.726 208.709C239.871 202.625 239.187 196.277 238.685 189.658Z" fill="#00C56A"/>
<path d="M176.039 190.581C138.206 179.221 55.7529 143.589 0.208232 75.1897L0.312814 112.273C76.1352 180.397 149.792 207.466 208.453 209.926C208.135 204.608 207.982 199.121 208.001 193.458C196.068 194.017 184.948 193.256 176.039 190.581Z" fill="#00C56A"/>
</svg>
